<?xml version="1.0" encoding="utf-8"?>
<!-- Generator: Adobe Illustrator 21.0.2, SVG Export Plug-In . SVG Version: 6.00 Build 0)  -->
<svg version="1.1" id="Layer_1" xmlns="http://www.w3.org/2000/svg" xmlns:xlink="http://www.w3.org/1999/xlink" x="0px" y="0px"
	 viewBox="0 0 300 300" enable-background="new 0 0 300 300" xml:space="preserve">
<title></title>
<g id="icomoon-ignore_1_">
</g>
<g>
	<path fill="#010101" d="M220.5,223.5c-5.4-9.1-13-21.1-23.6-25.4c-6.6-2.7-13.5,0-19.2,2.3l39.3,65.2c5.1-2,11.4-4.2,13.2-10.3
		C233.6,243.7,225.4,231.7,220.5,223.5z"/>
	<path fill="#010101" d="M152.2,93.1c6.9-11,2.1-28.8-0.1-38c-2.2-9.2-7.2-25.5-17-28.3c-5.5-1.5-10.4,0.5-15,2.4l22.1,72.1
		C146,99.5,149.8,97,152.2,93.1z"/>
	<path fill="#010101" d="M158.6,207.4c-10.3-1.9-16.6-11.2-20.9-18.4c-9.1-15-15.8-31.3-19.8-47.5c-1.8-7.2-4.4-20.2,1.5-29
		c3.9-5.7,12.5-6.8,18.6-9.1c0.1-0.1,0.3-0.1,0.4-0.2l-22.2-72.2C98.8,38.4,84,49,75.1,72.2c-6.9,18.1-6.8,32.8-5.3,48.3l0,0
		c2.8,27.8,12.7,55.8,24.4,79.5c11,22.4,26.1,48.7,54.7,64.5c23.8,13.2,46.3,10.3,64.2,3.2l-39.2-65
		C169.1,205.3,164,208.4,158.6,207.4z"/>
</g>
</svg>
